<svg xmlns="http://www.w3.org/2000/svg" viewBox="0 0 800 520" role="img" aria-label="Workflow automation"><defs><linearGradient id="g" x1="0" x2="1"><stop stop-color="#1769e0"/><stop offset="1" stop-color="#0faeaa"/></linearGradient><filter id="s"><feDropShadow dx="0" dy="10" stdDeviation="12" flood-opacity=".16"/></filter></defs><rect width="800" height="520" rx="32" fill="#eaf4ff"/><path d="M90 410C220 300 290 460 420 330S640 290 730 130" fill="none" stroke="#0faeaa" stroke-width="5" stroke-dasharray="10 12"/><g filter="url(#s)"><rect x="80" y="85" width="500" height="310" rx="20" fill="#fff"/><path d="M80 130h500" stroke="#c9d9ee" stroke-width="3"/><circle cx="110" cy="108" r="7" fill="#ff7e79"/><circle cx="133" cy="108" r="7" fill="#ffcb66"/><circle cx="156" cy="108" r="7" fill="#54c89a"/><rect x="115" y="165" width="220" height="23" rx="9" fill="#17345c"/><rect x="115" y="205" width="320" height="13" rx="6" fill="#b7c9df"/><rect x="115" y="232" width="270" height="13" rx="6" fill="#d8e4f2"/><rect x="115" y="275" width="140" height="42" rx="10" fill="url(#g)"/><rect x="380" y="165" width="155" height="165" rx="15" fill="#d9f5f0"/><path d="M408 288l34-36 28 18 36-60" fill="none" stroke="#1769e0" stroke-width="8"/><circle cx="642" cy="170" r="67" fill="#fff"/><path d="M610 170h65M642 138v65" stroke="#1769e0" stroke-width="8" stroke-linecap="round"/><rect x="590" y="280" width="150" height="104" rx="18" fill="#17345c"/><circle cx="620" cy="314" r="10" fill="#0faeaa"/><path d="M642 314h63M620 344h85" stroke="#d8eaff" stroke-width="9" stroke-linecap="round"/></g><text x="82" y="465" fill="#17345c" font-family="Arial, sans-serif" font-size="24" font-weight="700">Workflow automation</text></svg>
